# xmcd
#
# Track frame offsets:
#	150
#	14081
#	31454
#	51668
#	72139
#	91928
#	105653
#	115037
#	126591
#	138043
#	152177
#	176768
#	194439
#	207783
#
# Disc length: 2935 seconds
#
# Revision: 0
# Processed by: cddbd v1.4PL0 Copyright (c) Steve Scherf et al.
# Submitted via: EasyCDDAExtractor 4.6.9.1
#
DISCID=cb0b750e
DTITLE=les P'tits Belges
DYEAR=1900
DGENRE=National Folk
TTITLE0=le bal de la marine
TTITLE1=vlambeé montbalnaise
TTITLE2=elle tourne
TTITLE3=valse paradoxale
TTITLE4=valse à charlie
TTITLE5=embrasses les tous
TTITLE6=java
TTITLE7=escarmouches
TTITLE8=tatave
TTITLE9=bal musette
TTITLE10=ca n'a pas d'importance
TTITLE11=aux soldats morts
TTITLE12=la valse à michel
TTITLE13=le boup, la biche et le chevalier
EXTD=
EXTT0=
EXTT1=
EXTT2=
EXTT3=
EXTT4=
EXTT5=
EXTT6=
EXTT7=
EXTT8=
EXTT9=
EXTT10=
EXTT11=
EXTT12=
EXTT13=
PLAYORDER=
